<svg class="icon" viewBox="0 0 1024 1024" xmlns="http://www.w3.org/2000/svg" width="200" height="200"><defs><style/></defs><path d="M384 480H96c-51.2 0-96-44.8-96-96V96C0 44.8 44.8 0 96 0h288c51.2 0 96 44.8 96 96v288c0 51.2-44.8 96-96 96zM384 1024H96c-51.2 0-96-44.8-96-96V640c0-51.2 44.8-96 96-96h288c51.2 0 96 44.8 96 96v281.6c0 57.6-44.8 102.4-96 102.4zM787.2 1024C652.8 1024 544 915.2 544 787.2c0-134.4 108.8-236.8 236.8-236.8 134.4 0 236.8 108.8 236.8 236.8 6.4 128-102.4 236.8-230.4 236.8zM928 480H640c-51.2 0-96-44.8-96-96V96c0-51.2 44.8-96 96-96h281.6C979.2 0 1024 44.8 1024 96v288c0 51.2-44.8 96-96 96z"/></svg>